ply
format ascii 1.0
comment author: Greg Turk
obj_info random information
element vertex 291
property float x
property float y
property float z
element face 578
property list uchar int vertex_indices
end_header
15.9727 43.7703 -32.5258 
17.3668 44.7842 -27.8494 
17.8432 44.468 -30.4664 
20.192 43.9476 -23.9679 
29.8551 42.2514 -23.3747 
40.0315 37.527 -28.777 
23.5881 43.7188 -29.8859 
30.3883 31.7896 -14.2651 
26.7075 40.2124 -18.3444 
7.09294 37.5543 -16.9733 
15.0995 13.18 -15.4725 
30.2493 4.49107 -15.5274 
50.2162 15.1825 -14.3497 
46.3777 25.1021 -17.02 
47.957 29.1775 -15.2187 
49.7786 17.775 -16.0125 
49.9546 -10.4575 -58.9994 
50.9726 -2.0369 -64.5367 
51.8672 4.28337 -47.3975 
3.6739 -37.6151 -60.3579 
33.8461 -27.4576 -60.156 
33.5935 -29.1951 -58.8295 
46.6139 -25.1764 -58.1993 
49.4919 26.9826 -27.6191 
52.2113 22.1313 -43.489 
50.3405 19.8395 -30.4547 
43.4606 32.6548 -19.4056 
44.0947 23.5183 -47.0787 
41.5032 33.2331 -37.014 
29.1071 41.9015 -20.8865 
52.5619 17.3709 -47.5906 
52.6603 16.3286 -42.0315 
50.9129 12.446 -27.4255 
38.513 38.3751 -17.373 
-15.0627 -25.9239 -33.5362 
-19.0113 -18.2524 -26.3395 
-19.8977 -29.4814 -40.1729 
-19.0663 -10.456 -16.0817 
-20.6901 -3.13024 -13.9929 
-19.8168 -9.23906 -18.3658 
-19.3209 -8.80752 -17.4461 
14.0416 -15.6995 -18.6585 
25.4052 -9.74602 -17.8904 
-6.42216 -9.47984 -16.5146 
-2.70937 9.70405 -16.165 
13.7507 43.8069 -26.9648 
0.446387 31.2351 -35.476 
12.0942 41.0503 -30.3411 
12.3698 42.3027 -31.4158 
8.68595 38.4648 -27.3792 
-4.9215 30.0589 -23.1533 
3.90926 36.5875 -14.2563 
-21.6917 2.31525 -15.0565 
-19.6026 -7.24255 -15.7473 
-12.2803 -30.7442 -63.2135 
-5.20507 -2.21208 -60.8999 
-26.4523 -6.70492 -61.4309 
-24.9071 -3.65571 -61.9353 
-28.5372 -18.3318 -62.1162 
-24.2517 -17.4163 -64.9425 
-23.6522 -2.08606 -59.3526 
-21.9972 -0.880245 -55.2779 
39.2676 15.0517 -53.6496 
22.7669 36.8482 -39.0299 
20.9778 30.7799 -44.2198 
-8.07347 -39.6686 -54.8194 
-1.89369 -34.6209 -44.4647 
17.3726 -31.1351 -40.7033 
22.2053 -33.5751 -51.6295 
45.4667 35.4327 -14.5077 
48.9048 28.7691 -13.4641 
48.1633 13.8933 -15.9336 
51.6893 2.26806 -30.4504 
50.8729 -9.56073 -35.1523 
37.7871 -9.56021 -20.1775 
27.1072 -11.4987 -19.2251 
33.5709 -10.9252 -21.5191 
36.0225 -7.92402 -15.7095 
40.6968 -6.91173 -15.9854 
38.9105 -6.42085 -13.7917 
17.2342 17.2905 -53.0073 
15.1509 -36.5639 -54.9117 
39.9814 -28.6725 -55.3418 
44.5653 -23.5464 -54.0509 
44.6098 -24.7504 -50.1115 
51.6485 18.7112 -37.8507 
53.4491 15.639 -52.297 
42.4643 37.5823 -21.6535 
53.1222 10.5169 -58.2203 
51.7884 17.9891 -32.1345 
37.8479 39.0396 -18.9691 
45.8581 1.44476 -15.3676 
45.3803 -2.67455 -16.8116 
32.0096 -10.5406 -18.1739 
-19.0208 -16.0759 -23.101 
-17.289 -16.3178 -19.6874 
-20.1992 -4.01544 -14.5707 
-17.764 -14.7736 -15.9494 
16.7418 -8.14985 -17.109 
-23.0184 19.336 -26.3767 
-23.8768 16.5023 -15.5791 
-20.6471 23.2992 -15.7798 
-26.024 11.1138 -12.6184 
-24.5796 17.7201 -13.8452 
16.679 42.733 -22.081 
10.1077 40.6254 -25.3314 
-17.3906 23.8655 -20.326 
5.62534 22.3773 -15.1862 
-18.2089 -18.4989 -25.1344 
-22.0696 17.8394 -15.7445 
-14.4723 12.7372 -15.8099 
-26.7054 -23.1796 -60.9623 
5.60499 -19.6813 -60.3566 
9.54192 -25.7873 -60.912 
-26.1876 -7.819 -61.0469 
-21.1422 -13.9327 -59.4323 
29.4399 37.021 -37.3535 
18.792 42.8119 -33.9648 
14.2935 42.5957 -33.9023 
8.90219 37.2857 -37.423 
-16.5852 9.45545 -54.7062 
-20.1635 17.3836 -39.5947 
-22.4294 8.11265 -50.0934 
-10.3114 25.1196 -29.5054 
5.94607 -34.4819 -43.1874 
6.10277 -33.4592 -41.2274 
10.1455 -25.8966 -29.1083 
-22.626 -40.851 -61.869 
-15.1483 -43.6022 -63.1288 
17.935 -27.4088 -32.8136 
34.4531 -24.3226 -34.6078 
28.2348 -24.7608 -33.8839 
30.7267 -20.3114 -28.8061 
35.6615 -20.0621 -28.8817 
47.8374 -14.2102 -29.1519 
46.8313 -12.978 -25.5198 
43.6118 -19.942 -32.4141 
42.3282 -17.6326 -29.479 
45.1532 -13.494 -25.9312 
45.3813 34.4952 -16.2729 
50.904 9.9145 -15.3084 
51.2454 4.45067 -15.8742 
48.8274 5.98825 -15.228 
52.4256 4.12104 -15.0651 
49.3631 1.94703 -16.4755 
49.0561 -3.43124 -19.1228 
48.6757 -1.58373 -17.832 
48.9638 -12.8713 -33.6137 
49.1418 -5.75695 -22.3911 
49.3237 -6.82664 -23.898 
47.4622 17.3532 -17.8384 
48.7599 9.77126 -16.2179 
50.3401 1.30888 -19.6874 
50.2519 -7.8535 -25.099 
48.3438 -19.0005 -46.4145 
49.751 -17.2267 -41.2489 
27.3166 -11.4748 -16.9533 
44.2668 -8.71372 -21.4845 
16.4947 -7.33907 -59.8061 
30.2378 -19.4034 -60.3444 
28.058 3.1331 -60.4381 
38.2822 3.51522 -60.9144 
7.93642 32.1216 -42.5726 
-10.4016 9.04479 -59.0826 
53.7135 -0.803843 -65.027 
50.7063 -22.1653 -59.4521 
47.1769 -21.5781 -60.4669 
51.7699 -16.4877 -62.4186 
48.7975 -17.6744 -61.906 
44.0429 -23.4975 -41.2114 
46.0087 -19.3257 -41.3122 
45.5772 -19.5967 -47.0047 
39.804 -27.8197 -47.9483 
47.2785 -17.7037 -45.99 
37.4776 -29.8208 -56.9141 
34.6499 -29.2443 -56.8916 
50.5964 20.1585 -28.9492 
51.399 17.4153 -43.1706 
21.6273 -15.325 -19.4946 
47.2226 -1.67682 -16.903 
-17.5167 -14.3516 -15.6646 
-21.9789 13.8274 -17.5541 
-26.3781 10.7437 -13.9443 
-22.6617 21.703 -12.7397 
-14.0505 28.6796 -14.3371 
15.4646 44.5217 -25.1873 
-10.1035 30.0622 -15.2968 
2.02125 28.7926 -14.8115 
-18.3226 -13.5641 -20.2217 
-19.3848 -11.4972 -46.0756 
-18.5424 -22.7202 -45.2493 
-19.2897 -6.93956 -27.0852 
-20.491 -3.42067 -15.84 
-18.9327 -8.04667 -17.3285 
-31.344 -31.6557 -61.5354 
-11.4384 -15.6032 -60.526 
-19.8151 -26.9041 -60.6807 
-20.2545 -35.8217 -57.5564 
-22.5234 -33.0336 -67.9165 
28.1081 41.5683 -32.0714 
-21.636 -0.191061 -64.6032 
-23.3066 -0.158442 -64.5732 
-22.6843 5.65405 -56.0066 
-18.7234 3.48181 -62.3555 
-21.2416 8.91435 -33.3829 
-16.2142 22.0042 -33.7744 
-21.1734 -39.4551 -56.4202 
49.4118 -10.0803 -25.9513 
36.2804 -26.4664 -37.2884 
44.1801 36.6563 -14.4702 
48.3737 1.56503 -15.9275 
47.3136 -7.78987 -21.9146 
50.9447 -5.45122 -20.8801 
6.64381 -17.7491 -19.5281 
16.5488 -15.1901 -20.4066 
10.6736 -17.9877 -21.0915 
-3.90414 -16.2072 -16.4703 
8.25265 -19.9957 -21.8477 
12.3739 -21.5539 -24.3144 
0.793897 -19.7437 -20.0674 
39.2362 -18.1255 -28.6649 
47.8364 -4.30406 -19.2049 
47.2371 -3.1563 -17.4575 
40.0169 -7.1458 -60.0168 
52.2453 -10.2959 -61.0072 
54.5004 -3.05749 -62.2691 
52.8934 2.0663 -61.7158 
53.6275 3.32324 -61.2825 
14.306 41.6917 -35.3425 
7.98777 36.2222 -38.4308 
51.1231 -9.52045 -66.7789 
53.7652 10.2849 -58.6548 
51.5822 -19.87 -60.7157 
47.1 -21.9635 -60.9504 
48.4742 -20.2906 -59.3266 
38.7872 -26.4134 -39.6257 
46.399 -17.7387 -44.5417 
41.4295 -6.43704 -16.5667 
50.1208 1.83058 -16.8847 
24.855 -19.0836 -26.1314 
22.7075 -15.8818 -22.741 
21.0004 -24.2238 -30.2623 
-7.50257 -16.0086 -17.0154 
-13.6344 -16.852 -20.1509 
-10.3785 -16.1041 -19.8307 
-11.7576 -20.5526 -25.962 
-12.703 -18.4646 -24.863 
-22.3762 21.4147 -15.8883 
-6.06681 33.8722 -13.6994 
-5.12542 30.1537 -15.0991 
-18.3533 -13.3299 -20.9496 
-4.69005 21.1339 -48.6393 
-24.659 18.214 -33.531 
-19.5136 20.271 -29.8665 
48.5985 -5.58746 -21.8257 
39.0142 -0.352059 -60.6713 
55.911 -9.03181 -62.5187 
46.4962 3.86798 -59.9769 
36.9016 3.47126 -60.9025 
28.1421 7.01156 -58.6102 
8.85337 8.50971 -58.1593 
51.0876 -5.99595 -68.4529 
51.2976 -19.5079 -60.3316 
47.2802 -22.686 -59.6087 
49.3231 -19.7762 -47.923 
38.0441 -7.16165 -14.395 
34.2033 -15.5899 -25.2476 
-14.4035 -17.8304 -23.7193 
-20.1447 -3.07775 -13.6764 
-18.0357 -30.9 -42.6523 
-17.7493 -20.8444 -32.2059 
-23.3532 18.3759 -34.8848 
-18.2193 21.8261 -25.1197 
48.5776 -8.98784 -23.5542 
54.2229 -7.74312 -64.7865 
51.9965 3.17943 -61.5081 
32.5667 8.76666 -56.8615 
31.4706 7.47095 -58.0237 
18.61 4.69775 -59.1524 
49.2862 -14.6785 -63.85 
48.9641 -16.018 -61.3707 
49.4847 -18.3912 -55.1625 
34.5327 -12.2233 -22.8417 
29.985 -17.7718 -26.5841 
1.05113 -27.0475 -30.0508 
-6.00878 -25.0574 -25.5275 
-7.58984 -20.1404 -21.7629 
49.1348 -17.3921 -60.8866 
-9.60722 -17.6882 -22.1987 
-2.36649 -18.9164 -18.5453 
-2.25578 -22.7477 -21.4547 
3 0 1 2 
3 3 4 1 
3 2 1 4 
3 5 6 4 
3 2 4 6 
3 7 8 9 
3 7 10 11 
3 7 11 12 
3 13 14 15 
3 15 14 12 
3 16 17 18 
3 19 20 21 
3 20 22 21 
3 5 23 24 
3 25 23 26 
3 27 28 24 
3 5 24 28 
3 3 8 29 
3 3 29 4 
3 30 25 31 
3 18 31 32 
3 8 33 29 
3 4 29 33 
3 7 33 8 
3 34 35 36 
3 37 38 39 
3 40 35 39 
3 41 42 43 
3 11 10 43 
3 44 43 10 
3 3 1 45 
3 0 45 1 
3 46 47 48 
3 46 49 47 
3 46 50 49 
3 7 9 51 
3 37 52 38 
3 37 43 52 
3 53 52 43 
3 19 54 20 
3 55 56 57 
3 57 56 58 
3 57 59 60 
3 57 58 59 
3 61 60 59 
3 58 54 59 
3 62 63 27 
3 62 64 63 
3 34 65 66 
3 67 65 68 
3 7 14 69 
3 7 12 70 
3 7 70 14 
3 12 14 70 
3 13 15 71 
3 18 32 72 
3 16 18 73 
3 18 72 73 
3 74 75 76 
3 74 77 75 
3 74 78 77 
3 79 77 78 
3 62 80 64 
3 19 81 68 
3 82 83 84 
3 24 23 85 
3 24 85 86 
3 5 87 23 
3 26 23 87 
3 5 4 87 
3 4 26 87 
3 30 88 86 
3 30 31 88 
3 18 17 88 
3 18 88 31 
3 25 32 89 
3 25 89 31 
3 32 31 89 
3 4 90 26 
3 4 33 90 
3 26 90 33 
3 11 91 12 
3 11 42 91 
3 92 91 42 
3 92 42 93 
3 37 94 95 
3 37 39 94 
3 34 95 94 
3 34 94 35 
3 35 94 39 
3 40 39 96 
3 38 96 39 
3 37 95 97 
3 95 43 97 
3 11 98 42 
3 11 43 98 
3 42 98 43 
3 99 100 101 
3 102 100 52 
3 102 103 100 
3 9 104 45 
3 3 104 8 
3 8 104 9 
3 48 105 45 
3 48 47 105 
3 49 105 47 
3 49 50 105 
3 9 45 105 
3 9 105 50 
3 99 101 106 
3 44 10 107 
3 7 107 10 
3 36 35 108 
3 109 52 110 
3 44 107 110 
3 44 110 43 
3 55 111 58 
3 112 113 54 
3 55 58 114 
3 55 114 56 
3 58 56 114 
3 61 59 115 
3 27 116 28 
3 27 63 116 
3 0 117 63 
3 0 2 117 
3 2 6 117 
3 63 117 116 
3 46 118 119 
3 46 48 118 
3 48 45 118 
3 0 118 45 
3 0 63 118 
3 46 120 121 
3 57 60 122 
3 61 122 60 
3 46 123 50 
3 66 124 125 
3 67 124 65 
3 66 65 124 
3 126 124 67 
3 34 36 127 
3 34 127 65 
3 19 127 54 
3 19 68 128 
3 68 65 128 
3 19 128 127 
3 65 127 128 
3 126 67 129 
3 67 68 130 
3 67 130 131 
3 132 131 130 
3 132 130 133 
3 134 135 136 
3 137 130 136 
3 137 136 138 
3 138 136 135 
3 13 139 14 
3 14 139 69 
3 13 26 139 
3 26 33 139 
3 15 12 140 
3 12 141 140 
3 142 140 141 
3 15 140 71 
3 142 71 140 
3 92 141 143 
3 12 143 141 
3 92 143 91 
3 12 91 143 
3 142 141 144 
3 145 144 146 
3 147 148 149 
3 13 150 26 
3 13 71 150 
3 25 26 150 
3 25 150 32 
3 32 150 151 
3 142 150 71 
3 142 151 150 
3 32 151 152 
3 32 152 72 
3 72 152 73 
3 142 152 151 
3 145 152 142 
3 145 153 73 
3 147 73 153 
3 145 148 153 
3 147 153 148 
3 154 155 147 
3 147 155 73 
3 75 77 156 
3 41 156 93 
3 74 157 78 
3 137 138 157 
3 112 158 159 
3 112 159 113 
3 20 54 159 
3 54 113 159 
3 55 160 161 
3 64 80 162 
3 163 162 80 
3 64 162 63 
3 17 164 88 
3 20 165 22 
3 166 167 168 
3 169 84 170 
3 171 170 83 
3 84 83 170 
3 134 136 170 
3 169 170 136 
3 134 170 147 
3 169 172 84 
3 82 172 68 
3 82 84 172 
3 154 173 83 
3 154 147 173 
3 82 68 174 
3 82 174 83 
3 68 83 174 
3 68 81 175 
3 68 175 83 
3 19 175 81 
3 19 21 175 
3 22 175 21 
3 22 165 175 
3 25 176 23 
3 25 85 176 
3 23 176 85 
3 25 177 85 
3 86 85 177 
3 30 177 25 
3 30 86 177 
3 41 178 42 
3 41 93 178 
3 42 178 93 
3 92 93 179 
3 92 179 141 
3 37 180 43 
3 37 97 180 
3 43 180 97 
3 52 100 181 
3 109 182 52 
3 109 103 182 
3 102 52 182 
3 102 182 103 
3 101 100 183 
3 100 103 183 
3 9 184 51 
3 103 184 183 
3 101 183 184 
3 3 45 185 
3 3 185 104 
3 45 104 185 
3 101 186 106 
3 50 106 186 
3 101 184 186 
3 9 50 186 
3 7 187 107 
3 107 187 110 
3 40 188 35 
3 35 188 108 
3 189 190 191 
3 53 192 52 
3 52 192 110 
3 53 43 192 
3 43 110 192 
3 52 191 193 
3 58 194 54 
3 58 111 194 
3 54 194 111 
3 112 195 158 
3 112 54 195 
3 54 111 195 
3 55 158 195 
3 55 195 111 
3 189 115 196 
3 189 196 190 
3 197 190 196 
3 54 198 59 
3 59 198 115 
3 54 127 198 
3 197 198 127 
3 197 196 198 
3 115 198 196 
3 5 28 199 
3 28 116 199 
3 5 199 6 
3 6 199 117 
3 116 117 199 
3 55 200 163 
3 163 200 201 
3 55 57 200 
3 57 201 200 
3 121 120 202 
3 57 122 202 
3 121 202 122 
3 57 202 201 
3 201 202 120 
3 163 201 203 
3 201 120 203 
3 61 204 122 
3 61 115 204 
3 189 204 115 
3 99 204 100 
3 99 121 204 
3 121 122 204 
3 189 191 204 
3 100 204 181 
3 52 204 191 
3 52 181 204 
3 46 121 205 
3 46 205 123 
3 36 206 127 
3 197 127 206 
3 134 147 207 
3 147 149 207 
3 68 208 130 
3 130 208 136 
3 7 209 33 
3 33 209 139 
3 7 69 209 
3 69 139 209 
3 145 142 210 
3 145 210 144 
3 142 144 210 
3 138 135 211 
3 138 211 157 
3 145 211 148 
3 145 157 211 
3 73 152 212 
3 145 73 212 
3 145 212 152 
3 75 156 213 
3 214 75 213 
3 41 213 156 
3 214 213 215 
3 41 43 213 
3 43 216 213 
3 215 213 217 
3 218 217 213 
3 216 219 213 
3 126 218 213 
3 126 213 219 
3 137 157 220 
3 137 220 130 
3 133 130 220 
3 145 146 221 
3 145 221 157 
3 146 157 221 
3 146 222 157 
3 146 179 222 
3 158 223 159 
3 159 223 224 
3 225 226 164 
3 227 164 226 
3 63 162 228 
3 119 118 228 
3 63 228 118 
3 119 228 229 
3 229 228 162 
3 16 230 17 
3 88 164 231 
3 24 86 231 
3 86 88 231 
3 227 231 164 
3 27 24 231 
3 62 27 231 
3 62 231 227 
3 20 159 232 
3 20 232 165 
3 159 224 232 
3 167 165 232 
3 167 232 224 
3 166 233 167 
3 166 168 234 
3 166 234 83 
3 68 172 235 
3 169 235 172 
3 68 235 208 
3 169 136 235 
3 136 208 235 
3 171 83 236 
3 83 173 236 
3 171 236 170 
3 147 170 236 
3 147 236 173 
3 93 156 237 
3 93 237 179 
3 179 237 222 
3 78 157 237 
3 157 222 237 
3 141 179 238 
3 141 238 144 
3 146 238 179 
3 146 144 238 
3 218 239 240 
3 218 240 217 
3 214 215 240 
3 215 217 240 
3 214 240 75 
3 75 240 76 
3 126 241 218 
3 218 241 239 
3 126 129 241 
3 132 239 241 
3 132 241 131 
3 67 241 129 
3 67 131 241 
3 43 242 216 
3 95 243 43 
3 43 243 242 
3 244 242 243 
3 34 243 95 
3 34 245 246 
3 109 247 103 
3 109 184 247 
3 103 247 184 
3 9 248 184 
3 9 186 248 
3 184 248 186 
3 7 51 249 
3 7 249 187 
3 110 187 249 
3 109 110 249 
3 109 249 184 
3 51 184 249 
3 52 193 250 
3 40 250 188 
3 108 188 250 
3 36 108 250 
3 163 203 251 
3 120 251 203 
3 163 251 162 
3 229 162 251 
3 119 229 251 
3 46 119 251 
3 46 251 120 
3 99 252 121 
3 123 205 253 
3 99 253 252 
3 50 123 253 
3 149 148 254 
3 148 211 254 
3 55 161 255 
3 55 255 158 
3 158 255 223 
3 225 255 226 
3 161 226 255 
3 225 224 255 
3 223 255 224 
3 225 256 224 
3 167 224 256 
3 62 227 257 
3 227 226 257 
3 160 258 161 
3 160 259 258 
3 161 258 259 
3 55 163 260 
3 163 80 260 
3 80 259 260 
3 17 261 164 
3 17 230 261 
3 164 261 230 
3 167 262 165 
3 165 263 175 
3 165 262 263 
3 83 175 263 
3 167 233 263 
3 167 263 262 
3 166 83 263 
3 166 263 233 
3 154 83 264 
3 154 264 155 
3 73 155 264 
3 156 265 237 
3 79 265 77 
3 77 265 156 
3 79 78 265 
3 78 237 265 
3 239 266 240 
3 74 266 157 
3 132 133 266 
3 133 220 266 
3 157 266 220 
3 34 246 267 
3 34 267 243 
3 246 244 267 
3 244 243 267 
3 38 52 268 
3 52 250 268 
3 38 268 96 
3 40 96 268 
3 40 268 250 
3 36 250 269 
3 36 269 206 
3 197 206 269 
3 193 270 250 
3 191 190 270 
3 191 270 193 
3 250 270 269 
3 197 270 190 
3 197 269 270 
3 121 271 205 
3 121 252 271 
3 205 271 253 
3 252 253 271 
3 99 106 272 
3 99 272 253 
3 50 272 106 
3 50 253 272 
3 135 273 211 
3 211 273 254 
3 149 254 273 
3 149 273 207 
3 134 273 135 
3 134 207 273 
3 225 274 256 
3 167 256 274 
3 167 274 230 
3 225 164 274 
3 164 230 274 
3 161 275 226 
3 161 257 275 
3 226 275 257 
3 62 257 276 
3 62 276 80 
3 161 259 277 
3 161 277 257 
3 257 277 276 
3 80 277 259 
3 80 276 277 
3 160 278 259 
3 259 278 260 
3 55 278 160 
3 55 260 278 
3 16 279 230 
3 16 280 279 
3 167 279 168 
3 167 230 279 
3 83 234 281 
3 83 281 264 
3 16 281 280 
3 73 264 281 
3 16 73 281 
3 76 240 282 
3 240 266 282 
3 74 76 282 
3 74 282 266 
3 132 283 239 
3 132 266 283 
3 239 283 266 
3 34 284 285 
3 34 66 284 
3 66 125 284 
3 126 284 124 
3 125 124 284 
3 126 219 284 
3 244 286 242 
3 34 286 245 
3 34 285 286 
3 280 287 279 
3 234 287 281 
3 280 281 287 
3 168 287 234 
3 168 279 287 
3 246 288 244 
3 244 288 286 
3 246 245 288 
3 245 286 288 
3 216 289 219 
3 219 289 284 
3 216 242 289 
3 242 286 289 
3 285 290 286 
3 285 284 290 
3 286 290 289 
3 284 289 290 
