ply
format ascii 1.0
comment author: Greg Turk
obj_info random information
element vertex 221
property float x
property float y
property float z
element face 438
property list uchar int vertex_indices
end_header
-12.646 -21.1164 -85.9497 
-13.437 -8.07681 -68.7369 
-13.4528 -9.53917 -71.6373 
-25.9607 -40.2435 -92.8214 
-25.4514 -29.9554 -88.8874 
-5.34282 -52.503 -87.0908 
27.792 -69.0604 -82.0425 
-4.98369 -57.7479 -79.4526 
0.977417 -48.3356 -51.686 
29.1105 -65.1645 -73.565 
19.9364 -43.5027 -48.7821 
0.289771 3.67981 -70.4365 
2.48574 8.53419 -63.4548 
-17.1447 -4.31725 -44.8267 
-16.7638 -5.48223 -42.355 
-16.6385 -4.24398 -42.165 
33.5987 7.29016 -60.5064 
23.6565 13.3805 -58.2987 
31.726 4.64689 -50.1635 
51.1563 -52.2747 -90.6062 
46.1734 -36.3307 -95.3308 
49.426 -26.9961 -87.9997 
49.8133 -29.7512 -92.5151 
1.82325 -36.7177 -94.0663 
27.9174 -31.7438 -95.7426 
50.1278 -34.2352 -87.8197 
49.155 -24.3888 -71.9716 
-22.2111 -36.1172 -49.0267 
-23.1175 -38.1957 -60.4634 
-22.4227 -51.6897 -62.5837 
-22.7211 -30.786 -68.7469 
-23.8438 -27.295 -57.5511 
-23.9421 -36.4349 -77.4282 
-21.5405 -14.7264 -59.8351 
-23.1809 -20.5551 -71.9065 
-22.8653 -23.3838 -82.6823 
-24.4939 -45.4491 -92.6205 
-15.8214 -47.5975 -93.2012 
5.93892 -43.1991 -47.4301 
20.0122 14.3355 -62.9277 
23.5074 11.2379 -65.3476 
27.9975 5.06978 -70.4168 
3.90964 6.58425 -45.0001 
25.8882 12.4636 -62.2111 
48.1875 -23.1705 -88.1901 
47.9934 -15.7951 -78.3973 
47.6969 -17.2237 -82.6515 
39.2061 -19.1997 -88.7982 
44.9704 -16.3068 -82.1922 
41.7404 -2.05616 -69.9228 
39.3734 4.31934 -64.034 
46.0517 -6.54303 -69.8799 
44.5765 -3.91819 -59.1105 
39.1916 3.51593 -54.5551 
21.3559 14.2133 -54.3865 
49.6147 -30.7875 -71.1807 
49.9049 -32.6546 -62.6662 
49.8736 -50.7518 -70.9653 
1.91028 7.72652 -57.8004 
41.5341 -11.2909 -43.4817 
34.1083 -1.08761 -44.4827 
52.8845 -33.9288 -95.6139 
25.7666 -44.8085 -91.9548 
34.6605 -44.1544 -93.5261 
32.0096 -48.1971 -93.3194 
10.1218 -45.651 -93.2314 
-24.2333 -35.1678 -94.1852 
-26.2763 -10.6 -43.6999 
-26.5154 -10.886 -40.9209 
-23.5998 -20.0982 -45.3298 
-6.3847 -10.8285 -43.7707 
-19.9608 -18.8655 -43.2905 
-26.0786 -47.1365 -90.4033 
-24.8032 -8.53276 -46.1028 
-22.4739 -26.6409 -73.1998 
-17.4731 -61.1916 -67.9642 
-23.8922 -59.7378 -68.6349 
-19.6368 -56.889 -73.8198 
16.2765 -66.7823 -78.1441 
-26.3033 -43.7404 -95.167 
26.9844 -52.7472 -94.7454 
37.6811 -59.7742 -92.7931 
46.6396 -66.2465 -94.5065 
47.9517 -66.9777 -93.3613 
47.3419 -61.3824 -82.7315 
0.091341 -44.0327 -46.9698 
-8.97823 -46.1651 -47.3339 
-23.3889 -57.9507 -63.0627 
-21.6197 -39.019 -50.2342 
-21.2513 -51.4533 -56.3852 
-22.0239 -52.8422 -59.0897 
39.9925 -74.2907 -83.7615 
37.0366 -73.3523 -81.5528 
39.8966 -71.9615 -83.2467 
44.643 -58.5534 -74.4776 
48.5588 -48.1592 -65.7865 
47.2422 -37.8809 -55.5227 
17.5352 13.8083 -67.3136 
13.9617 14.2006 -68.0987 
13.9887 15.8806 -63.9127 
9.54001 14.3794 -64.9095 
23.2356 -25.705 -93.2507 
-6.17636 -24.638 -44.4095 
-16.3812 -22.0488 -43.8887 
20.8748 12.5579 -45.7983 
18.3116 13.1057 -45.8167 
12.7095 14.6553 -59.8062 
11.741 12.7269 -52.6145 
6.38028 5.44767 -44.424 
25.8851 0.294624 -44.8237 
48.2874 -14.8532 -75.5066 
47.3333 -10.2053 -71.9642 
47.0784 -8.08683 -59.7962 
49.0625 -21.5384 -84.0024 
19.7912 15.314 -55.1146 
22.7644 13.8264 -49.2022 
49.1446 -24.6835 -65.1774 
47.5058 -64.0906 -90.4145 
47.328 -16.5615 -47.3764 
50.5798 -35.7675 -49.7839 
42.6932 -6.8495 -44.6478 
51.6227 -22.5131 -44.3077 
46.3684 -14.5578 -43.6816 
52.5338 -28.8727 -42.8071 
50.9708 -25.3977 -42.7575 
44.4911 -17.2759 -45.0417 
52.7281 -26.5011 -45.3009 
53.0636 -32.3195 -94.7321 
52.7529 -36.5743 -96.6741 
13.7103 -41.5753 -91.9735 
-11.0067 -45.754 -94.0109 
-24.1562 -23.4653 -77.9647 
-21.921 -49.8902 -82.0493 
-24.4365 -50.1871 -80.0936 
-16.4023 -55.1542 -76.3288 
-23.6293 -49.2738 -87.936 
-23.9693 -49.175 -84.162 
-24.5862 -48.499 -92.4196 
-23.8459 -53.1572 -81.7191 
9.29221 -65.2421 -74.9752 
-24.1785 -45.8221 -93.9645 
51.2567 -62.9593 -93.5964 
50.3081 -60.0701 -96.2052 
51.3675 -50.0972 -96.3753 
43.4334 -31.9327 -44.9475 
19.9604 -37.4575 -45.8517 
45.1654 -35.8295 -44.3673 
40.7499 -45.8073 -53.671 
46.2289 -33.9413 -43.2719 
41.2218 -62.2213 -73.378 
4.83476 -43.567 -46.6242 
-15.9561 -59.2719 -67.2757 
-20.506 -44.5497 -51.2284 
-9.56007 -50.2208 -48.8275 
35.9328 -72.3152 -81.9478 
44.6834 -71.1092 -85.6283 
40.4768 -70.8389 -82.6332 
16.267 14.1047 -68.3105 
10.7402 14.6604 -63.5673 
15.7569 -8.56888 -85.9728 
17.2068 15.1086 -53.4006 
3.17365 7.39314 -48.307 
47.4308 -11.1693 -61.3931 
49.1773 -21.2993 -50.8544 
50.6351 -28.2161 -42.2267 
33.2885 2.78016 -44.9011 
19.6674 -23.2314 -44.7858 
-8.94888 -29.8954 -44.6936 
-23.722 -50.0677 -80.3422 
-24.0914 -54.9164 -77.7189 
34.5081 -72.5614 -79.4599 
-22.4513 -49.8741 -90.3855 
52.4462 -57.126 -97.7474 
50.4927 -29.1053 -42.8642 
45.75 -30.1207 -41.9463 
42.5684 -52.8229 -67.3157 
-23.1553 -29.4076 -46.1122 
-23.2834 -29.6843 -46.4446 
-21.1859 -48.248 -57.6725 
-20.9024 -55.0336 -62.4228 
-18.604 -50.5558 -55.331 
-9.05374 -53.242 -56.614 
2.89471 -43.5022 -46.9898 
-8.12232 -59.048 -68.7304 
40.9118 -65.6317 -89.2517 
48.0558 -63.8855 -85.7773 
38.8726 -72.407 -82.5002 
16.8911 3.56742 -77.2513 
3.49728 -0.943718 -80.1921 
46.4499 -6.5906 -65.6108 
47.4955 -11.0547 -55.3523 
50.6793 -32.5014 -48.6776 
-19.5619 -30.605 -45.0814 
-1.68903 -40.4259 -46.1814 
-12.9304 -38.9272 -45.4882 
33.0479 -71.8417 -78.5241 
47.0236 -30.6236 -45.761 
-15.0938 -49.2556 -51.6476 
-11.1585 -51.0956 -48.7026 
-19.3396 -53.8362 -60.869 
3.81801 -55.1382 -60.3493 
49.3775 -65.2979 -85.8015 
49.271 -64.8396 -95.0324 
46.6959 -67.7634 -91.4263 
23.4766 -4.54146 -83.606 
-23.7887 -26.7378 -44.5582 
-20.1994 -38.8754 -50.8456 
-20.4263 -45.9939 -56.8592 
44.0115 -40.8326 -57.1082 
-22.4995 -54.1457 -60.8002 
-12.8705 -56.0195 -64.4097 
50.4669 -65.8343 -93.074 
-24.144 -25.5602 -43.9157 
-16.8942 -36.5821 -46.1183 
-13.8278 -43.3584 -47.6692 
-20.0789 -47.5186 -56.2592 
43.2779 -40.176 -51.7853 
46.0643 -36.5919 -54.3851 
5.23623 -61.5389 -69.8738 
-15.987 -45.9668 -49.7053 
-17.1566 -42.0725 -49.4142 
3 0 1 2 
3 0 3 4 
3 5 6 7 
3 8 9 10 
3 0 2 11 
3 12 11 1 
3 1 11 2 
3 13 14 15 
3 16 17 18 
3 19 20 21 
3 22 21 20 
3 20 23 24 
3 19 25 26 
3 19 21 25 
3 26 25 21 
3 27 28 29 
3 30 28 31 
3 29 28 32 
3 30 32 28 
3 30 31 33 
3 34 32 33 
3 0 35 1 
3 0 4 35 
3 5 36 37 
3 3 37 36 
3 8 10 38 
3 39 16 40 
3 16 41 40 
3 14 42 15 
3 13 15 42 
3 39 43 16 
3 39 17 43 
3 16 43 17 
3 22 44 21 
3 22 45 44 
3 21 44 46 
3 45 46 44 
3 47 48 22 
3 47 41 48 
3 41 49 48 
3 16 50 41 
3 41 50 49 
3 49 51 48 
3 52 51 16 
3 52 45 51 
3 16 51 50 
3 49 50 51 
3 52 16 53 
3 52 53 18 
3 16 18 53 
3 17 54 18 
3 19 26 55 
3 19 55 56 
3 19 56 57 
3 13 58 33 
3 12 1 58 
3 1 33 58 
3 59 18 60 
3 47 22 61 
3 62 63 64 
3 20 63 23 
3 62 64 65 
3 0 66 3 
3 0 23 66 
3 3 66 23 
3 13 67 68 
3 13 68 14 
3 67 69 68 
3 67 33 69 
3 31 69 33 
3 14 68 69 
3 27 69 28 
3 28 69 31 
3 14 69 70 
3 70 69 71 
3 3 72 32 
3 13 73 67 
3 13 33 73 
3 67 73 33 
3 30 74 32 
3 30 33 74 
3 32 74 33 
3 75 76 77 
3 6 78 7 
3 3 36 79 
3 5 37 80 
3 5 80 81 
3 64 80 65 
3 64 63 80 
3 19 82 83 
3 84 83 82 
3 8 85 86 
3 75 87 76 
3 29 76 87 
3 88 89 90 
3 29 87 89 
3 90 89 87 
3 6 91 92 
3 93 92 91 
3 9 93 94 
3 95 96 94 
3 39 40 97 
3 41 97 40 
3 39 97 98 
3 39 98 99 
3 12 100 11 
3 11 100 98 
3 98 100 99 
3 12 58 100 
3 0 101 23 
3 24 23 101 
3 47 20 101 
3 20 24 101 
3 102 70 103 
3 70 71 103 
3 104 105 42 
3 106 58 107 
3 14 70 108 
3 14 108 42 
3 70 109 108 
3 104 42 108 
3 104 108 109 
3 26 21 110 
3 45 111 46 
3 52 111 45 
3 52 112 111 
3 21 46 111 
3 21 111 110 
3 22 113 45 
3 45 113 51 
3 22 48 113 
3 48 51 113 
3 17 114 54 
3 39 114 17 
3 115 18 114 
3 18 54 114 
3 26 56 116 
3 26 116 55 
3 56 55 116 
3 19 57 117 
3 84 117 57 
3 19 117 82 
3 84 82 117 
3 52 118 112 
3 52 18 118 
3 59 118 18 
3 84 119 95 
3 84 57 119 
3 120 121 122 
3 123 124 121 
3 59 124 118 
3 59 122 124 
3 121 124 122 
3 123 119 124 
3 118 124 119 
3 120 109 125 
3 126 121 125 
3 120 125 121 
3 47 127 20 
3 47 61 127 
3 20 127 61 
3 22 20 128 
3 22 128 61 
3 20 61 128 
3 62 65 129 
3 23 129 65 
3 62 129 63 
3 23 63 129 
3 3 23 130 
3 23 65 130 
3 3 130 37 
3 37 130 80 
3 65 80 130 
3 34 33 131 
3 1 131 33 
3 34 131 32 
3 3 32 131 
3 3 131 4 
3 1 35 131 
3 4 131 35 
3 5 7 132 
3 77 133 134 
3 135 36 136 
3 5 136 36 
3 5 133 136 
3 77 136 133 
3 3 137 72 
3 29 138 76 
3 29 32 138 
3 32 72 138 
3 72 137 138 
3 6 139 78 
3 75 77 139 
3 77 134 139 
3 7 78 139 
3 7 139 134 
3 135 140 36 
3 36 140 79 
3 3 79 140 
3 3 140 137 
3 19 141 142 
3 81 142 141 
3 81 80 142 
3 63 143 80 
3 19 143 20 
3 20 143 63 
3 10 144 145 
3 10 146 144 
3 126 125 144 
3 10 147 146 
3 148 146 147 
3 10 9 147 
3 149 147 9 
3 10 85 150 
3 75 151 87 
3 75 139 151 
3 27 152 88 
3 88 152 89 
3 27 29 152 
3 29 89 152 
3 8 86 153 
3 9 154 93 
3 9 92 154 
3 93 154 92 
3 93 91 155 
3 93 155 94 
3 6 155 91 
3 149 156 94 
3 9 94 156 
3 41 98 157 
3 41 157 97 
3 98 97 157 
3 106 158 58 
3 106 99 158 
3 58 158 100 
3 99 100 158 
3 0 159 101 
3 47 101 159 
3 42 105 160 
3 42 160 107 
3 104 115 160 
3 104 160 105 
3 106 107 160 
3 115 114 160 
3 39 160 114 
3 39 99 160 
3 106 160 99 
3 42 107 161 
3 58 161 107 
3 13 42 161 
3 13 161 58 
3 26 110 162 
3 110 111 162 
3 26 163 56 
3 26 162 163 
3 118 163 162 
3 123 164 119 
3 120 122 165 
3 59 60 165 
3 59 165 122 
3 104 109 165 
3 120 165 109 
3 18 165 60 
3 104 165 115 
3 115 165 18 
3 102 166 70 
3 145 144 166 
3 125 166 144 
3 70 166 109 
3 109 166 125 
3 71 69 167 
3 71 167 103 
3 102 103 167 
3 102 167 166 
3 145 166 167 
3 133 168 134 
3 5 168 133 
3 5 132 168 
3 7 168 132 
3 7 134 168 
3 135 136 169 
3 77 169 136 
3 135 169 138 
3 77 76 169 
3 76 138 169 
3 6 170 139 
3 6 92 170 
3 9 170 92 
3 137 171 138 
3 137 140 171 
3 135 138 171 
3 135 171 140 
3 19 142 172 
3 80 172 142 
3 19 172 143 
3 80 143 172 
3 126 144 173 
3 123 121 173 
3 126 173 121 
3 148 174 173 
3 148 173 146 
3 146 173 144 
3 123 173 164 
3 149 94 175 
3 88 176 177 
3 88 90 178 
3 87 151 179 
3 180 179 181 
3 8 153 181 
3 10 182 38 
3 10 150 182 
3 8 38 182 
3 8 182 85 
3 85 182 150 
3 139 183 151 
3 151 183 179 
3 81 141 184 
3 5 81 184 
3 6 184 155 
3 5 184 6 
3 84 95 185 
3 149 9 186 
3 149 186 156 
3 9 156 186 
3 11 98 187 
3 41 187 98 
3 47 187 41 
3 0 11 188 
3 0 188 159 
3 11 187 188 
3 159 188 187 
3 112 189 111 
3 112 162 189 
3 111 189 162 
3 112 118 190 
3 112 190 162 
3 118 162 190 
3 118 119 191 
3 118 191 163 
3 56 163 191 
3 56 191 57 
3 57 191 119 
3 69 192 167 
3 145 167 193 
3 194 193 192 
3 167 192 193 
3 10 145 193 
3 10 193 85 
3 86 193 194 
3 86 85 193 
3 9 139 195 
3 9 195 170 
3 139 170 195 
3 174 196 173 
3 95 196 96 
3 95 119 196 
3 119 164 196 
3 164 173 196 
3 180 181 197 
3 86 198 153 
3 86 181 198 
3 153 198 181 
3 179 199 181 
3 8 200 9 
3 8 181 200 
3 9 200 181 
3 83 185 201 
3 94 155 201 
3 155 184 201 
3 95 94 201 
3 95 201 185 
3 19 83 202 
3 84 203 83 
3 84 185 203 
3 83 203 185 
3 47 159 204 
3 47 204 187 
3 159 187 204 
3 69 205 192 
3 27 205 69 
3 176 205 177 
3 27 88 205 
3 88 177 205 
3 88 206 176 
3 176 206 192 
3 88 178 206 
3 178 207 206 
3 94 208 175 
3 180 209 179 
3 90 87 209 
3 87 179 209 
3 90 209 178 
3 179 183 210 
3 179 210 199 
3 181 199 210 
3 184 211 201 
3 141 211 184 
3 83 201 211 
3 83 211 202 
3 19 211 141 
3 19 202 211 
3 176 192 212 
3 176 212 205 
3 192 205 212 
3 194 192 213 
3 192 206 213 
3 181 214 197 
3 194 213 214 
3 86 194 214 
3 86 214 181 
3 207 215 206 
3 180 215 209 
3 178 215 207 
3 178 209 215 
3 196 216 208 
3 148 147 216 
3 175 208 216 
3 148 216 174 
3 174 216 196 
3 149 216 147 
3 149 175 216 
3 96 196 217 
3 196 208 217 
3 96 217 94 
3 94 217 208 
3 9 181 218 
3 181 210 218 
3 9 218 139 
3 139 218 183 
3 183 218 210 
3 180 197 219 
3 197 214 219 
3 180 219 220 
3 214 220 219 
3 180 220 215 
3 206 215 220 
3 206 220 213 
3 213 220 214 
